<svg xmlns="http://www.w3.org/2000/svg" xml:space="preserve" width="210mm" height="188.426mm" version="1.1"
    style="shape-rendering:geometricPrecision; text-rendering:geometricPrecision; image-rendering:optimizeQuality; fill-rule:evenodd; clip-rule:evenodd"
    viewBox="0 0 21000 18842.58" xmlns:xlink="http://www.w3.org/1999/xlink"
    xmlns:xodm="http://www.corel.com/coreldraw/odm/2003">
    <defs>
        <style type="text/css">
            <![CDATA[
            .fil0 {
                fill: #000;
                fill-rule: nonzero
            }
            ]]>
        </style>
    </defs>
    <g id="Layer_x0020_1">
        <metadata id="CorelCorpID_0Corel-Layer" />
        <g id="_2192909486160">
            <path class="fil0"
                d="M19654.69 2690.63l-18309.38 0c-742.38,0 -1345.31,-602.93 -1345.31,-1345.31 0,-742.38 602.93,-1345.31 1345.31,-1345.31l18309.38 -0.01c742.38,0 1345.31,602.93 1345.31,1345.31 0,742.38 -602.93,1345.32 -1345.31,1345.32z" />
            <path class="fil0"
                d="M12116.02 10766.6l-10770.71 0c-742.38,0 -1345.31,-602.93 -1345.31,-1345.31 0,-742.38 602.93,-1345.31 1345.31,-1345.31l10770.71 0c742.38,0 1345.31,602.93 1345.31,1345.31 0,742.38 -602.93,1345.31 -1345.31,1345.31z" />
        </g>
        <path class="fil0"
            d="M19654.69 10766.6l-2153.32 0c-742.38,0 -1345.31,-602.93 -1345.31,-1345.31 0,-742.38 602.93,-1345.31 1345.31,-1345.31l2153.32 0c742.38,0 1345.31,602.93 1345.31,1345.31 0,742.38 -602.93,1345.31 -1345.31,1345.31z" />
        <path class="fil0"
            d="M19654.69 18842.58l-18309.38 0c-742.38,0 -1345.31,-602.93 -1345.31,-1345.31 0,-742.38 602.93,-1345.31 1345.31,-1345.31l18309.38 -0.01c742.38,0 1345.31,602.93 1345.31,1345.31 0,742.38 -602.93,1345.32 -1345.31,1345.32z" />
    </g>
</svg>